<svg width="23" height="21" viewBox="0 0 23 21" fill="none" xmlns="http://www.w3.org/2000/svg">
<g id="back">
<path id="Vector" d="M21.2916 9.08357H4.98413L9.97538 3.08857C10.2088 2.80777 10.3211 2.44576 10.2875 2.08218C10.254 1.71859 10.0774 1.38321 9.79663 1.14982C9.51583 0.916429 9.15382 0.804144 8.79023 0.837666C8.42664 0.871189 8.09127 1.04777 7.85788 1.32857L0.982876 9.57857C0.936622 9.64419 0.89526 9.71313 0.859126 9.78482C0.859126 9.85357 0.859126 9.89482 0.762876 9.96357C0.700552 10.1212 0.66792 10.289 0.666626 10.4586C0.66792 10.6281 0.700552 10.7959 0.762876 10.9536C0.762876 11.0223 0.762876 11.0636 0.859126 11.1323C0.89526 11.204 0.936622 11.273 0.982876 11.3386L7.85788 19.5886C7.98716 19.7438 8.14905 19.8686 8.33204 19.9542C8.51503 20.0397 8.71462 20.0839 8.91663 20.0836C9.2379 20.0842 9.54925 19.9723 9.79663 19.7673C9.93586 19.6519 10.0509 19.5101 10.1353 19.3501C10.2197 19.1902 10.2716 19.0151 10.2882 18.835C10.3048 18.6549 10.2858 18.4733 10.2321 18.3006C10.1784 18.1279 10.0912 17.9675 9.97538 17.8286L4.98413 11.8336H21.2916C21.6563 11.8336 22.006 11.6887 22.2639 11.4308C22.5218 11.173 22.6666 10.8232 22.6666 10.4586C22.6666 10.0939 22.5218 9.74416 22.2639 9.4863C22.006 9.22844 21.6563 9.08357 21.2916 9.08357Z" fill="white"/>
</g>
</svg>
