<svg width="228" height="228" viewBox="0 0 228 228" fill="none" xmlns="http://www.w3.org/2000/svg">
<g id="Frame" clip-path="url(#clip0_18_30)">
<g id="[component:lottie:https://assets2.lottiefiles.com/packages/lf20_wvpnatmg.json]" filter="url(#filter0_d_18_30)">
<g id="Group">
<g id="Group_2">
<path id="Vector" d="M116.25 25.5C170.474 25.5 214.5 67.8455 214.5 120C214.5 172.155 170.474 214.5 116.25 214.5C62.0258 214.5 18 172.155 18 120C18 67.8455 62.0258 25.5 116.25 25.5Z" fill="#FFD426"/>
<path id="Vector_2" d="M116.25 25.5C170.474 25.5 214.5 67.8454 214.5 120C214.5 172.155 170.474 214.5 116.25 214.5C62.0258 214.5 18 172.155 18 120C18 67.8454 62.0258 25.5 116.25 25.5Z" stroke="white" stroke-width="6"/>
</g>
</g>
<g id="Group_3">
<g id="Group_4">
<path id="Vector_3" d="M174.867 85.2695C187.165 82.698 199.321 90.2142 201.994 102.043C204.668 113.872 196.854 125.564 184.555 128.136C172.257 130.707 160.101 123.191 157.427 111.362C154.754 99.5331 162.568 87.841 174.867 85.2695Z" fill="#984DFF"/>
</g>
</g>
<g id="Group_5">
<g id="Group_6">
<path id="Vector_4" d="M103.391 57.0954C143.322 48.746 182.139 68.9383 190.474 102.779L190.728 103.803L178.989 106.258C172.694 78.408 140.135 61.237 105.943 68.3864C72.1225 75.4582 50.0104 103.599 55.6742 131.185L55.8592 132.004L44.1201 134.458C36.336 100.019 63.0899 65.5222 103.391 57.0954Z" fill="#B06BFF"/>
</g>
</g>
<g id="Group_7">
<g id="Group_8">
<path id="Vector_5" d="M133.048 100.298C136.606 116.039 152.756 126.025 169.121 122.603C185.486 119.181 195.868 103.647 192.311 87.9068C188.753 72.1665 172.603 62.1803 156.238 65.6021C139.873 69.024 129.49 84.5581 133.048 100.298Z" fill="#303135"/>
</g>
</g>
<g id="Group_9">
<g id="Group_10">
<path id="Vector_6" d="M50.3713 150.146C42.6773 116.104 79.2085 82.7067 109.63 74.851L112.401 74.2716C142.629 69.4016 179.178 75.9139 192.422 112.773C193.167 114.859 194.105 116.882 195.207 118.828C214.51 153.277 174.046 173.518 136.726 181.893L136.731 181.914C136.273 182.01 135.814 182.106 135.351 182.181C134.876 182.302 134.418 182.398 133.96 182.494L133.955 182.473C95.3583 189.95 58.1174 184.417 50.3713 150.146Z" fill="white"/>
</g>
</g>
<g id="Group_11">
<g id="Group_12">
<path id="Vector_7" d="M140.466 120.17C144.11 119.408 146.374 120.429 146.825 122.423C147.275 124.417 145.152 126.751 142.097 127.39C139.043 128.028 136.082 126.757 135.631 124.763C135.18 122.77 136.8 120.937 140.466 120.17Z" fill="#303135"/>
</g>
</g>
<g id="Group_13">
<g id="Group_14">
<path id="Vector_8" d="M180.172 152.239C190.078 150.167 197.774 137.107 193.942 120.149C189.876 102.163 174.009 89.2828 162.609 92.1279C149.723 95.3718 149.052 112.524 151.733 123.37C156.102 140.985 167.101 154.971 180.172 152.239Z" fill="#303135"/>
</g>
</g>
<g id="Group_15">
<g id="Group_16">
<path id="Vector_9" d="M156.538 121.319C158.393 129.525 164.898 135.154 171.073 133.863C177.27 132.567 180.758 124.849 178.904 116.643C177.044 108.416 170.539 102.787 164.342 104.083C158.167 105.374 154.679 113.092 156.538 121.319Z" fill="white"/>
</g>
</g>
<g id="Group_17">
<g id="Group_18">
<path id="Vector_10" d="M166.311 109.368C169.885 108.598 172.406 110.753 174.074 114.492C174.879 116.236 175.451 118.16 176.008 120.725L176.318 122.199C176.375 122.451 176.41 122.707 176.472 122.98C176.741 124.374 175.771 125.742 174.321 126.001C172.85 126.265 171.433 125.353 171.158 123.937L170.889 122.543L170.609 121.305L170.331 120.176C169.96 118.737 169.581 117.564 169.121 116.539C168.346 114.833 167.809 114.374 167.503 114.437C166.718 114.602 166.332 115.627 166.498 117.878L166.587 118.673C166.605 118.955 166.649 119.254 166.694 119.552L166.873 120.547L167.135 122.009L167.627 124.39C167.897 125.784 166.926 127.152 165.477 127.411C164.005 127.675 162.583 126.741 162.314 125.347L161.628 121.908L161.541 121.421C160.338 114.683 161.128 110.496 166.311 109.368Z" fill="#303135"/>
</g>
</g>
<g id="Group_19">
<g id="Group_20">
<path id="Vector_11" d="M127.535 129.494C131.114 147.757 124.12 165.946 105.616 169.815C91.5861 172.748 74.6472 164.532 70.7148 147.133C66.5358 128.644 80.4663 109.093 96.8483 106.151C115.409 102.841 125.329 118.218 127.535 129.494Z" fill="#303135"/>
</g>
</g>
<g id="Group_21">
<g id="Group_22">
<path id="Vector_12" d="M117.979 130.408C119.886 138.845 114.647 147.106 106.268 148.858C97.9109 150.605 89.5785 145.182 87.6716 136.746C85.7599 128.288 90.9995 120.027 99.3566 118.28C107.735 116.528 116.068 121.951 117.979 130.408Z" fill="white"/>
</g>
</g>
<g id="Group_23">
<g id="Group_24">
<path id="Vector_13" d="M100.311 123.162C106.605 121.89 109.95 125.366 112.014 131.968L112.242 132.777L112.55 133.834L113.277 136.649C113.667 138.172 112.722 139.754 111.117 140.134C109.517 140.534 107.893 139.621 107.477 138.081L106.614 134.767L106.431 134.058C105.141 129.668 103.896 128.302 101.539 128.795C100.334 129.025 99.8314 129.834 99.7394 131.853C99.6834 133.425 99.9244 135.199 100.487 137.587L100.817 138.947C100.869 139.177 100.948 139.425 101.005 139.677C101.421 141.216 100.45 142.782 98.8714 143.178C97.2709 143.578 95.643 142.644 95.2265 141.105L95.0244 140.312L94.6487 138.852C93.9818 136.002 93.6678 133.804 93.7702 131.628C93.9438 127.24 96.03 124.035 100.311 123.162Z" fill="#303135"/>
</g>
</g>
<g id="Group_25">
<g id="Group_26">
<path id="Vector_14" d="M89.7857 71.7281C87.802 71.5663 85.982 70.9907 84.3748 70.0761L88.0457 63.4373C88.7505 63.8468 89.5689 64.1072 90.4372 64.1707C93.6563 64.4379 96.5236 61.967 96.816 58.7078C97.0802 55.4349 94.6811 52.5552 91.4407 52.2948C88.5675 52.0762 85.9843 54.0045 85.2557 56.7464L78.0236 54.8583C79.6667 48.6145 85.541 44.2164 92.0922 44.7374C99.4412 45.3219 104.908 51.8641 104.264 59.306C103.62 66.748 97.1347 72.3125 89.7857 71.7281Z" fill="#FF5A2E"/>
</g>
</g>
<g id="Group_27">
<g id="Group_28">
<path id="Vector_15" d="M86.7351 45.3527C88.6011 44.7603 90.5222 44.6027 92.3927 44.8457L91.692 52.3282C90.8591 52.2308 90.0116 52.2963 89.2058 52.5521C86.11 53.535 84.4828 56.8787 85.5466 59.9787C86.6175 63.0992 89.9945 64.8542 93.0903 63.8713C95.8257 63.0029 97.4228 60.2567 96.9724 57.4369L104.397 56.4594C105.124 60.9779 103.522 65.422 100.314 68.3402L103.812 74.6121L103.445 76.0291L102.001 77.3379L99.9522 77.4048L98.1693 76.6704L95.1087 71.1917L95.0875 71.1984C88.2182 73.1079 80.8229 69.1682 78.4432 62.234C76.0145 55.1569 79.7165 47.581 86.7351 45.3527Z" fill="#FF5A2E"/>
</g>
</g>
<g id="Group_29">
<g id="Group_30">
<path id="Vector_16" d="M91.301 82.1694C91.4708 82.6174 113.998 74.4123 113.771 73.9105C112.91 72.0244 107.319 71.8528 101.12 74.0501C94.9041 76.2729 90.5278 80.2651 91.301 82.1694Z" fill="#303135"/>
</g>
</g>
<g id="Group_31">
<g id="Group_32">
<path id="Vector_17" d="M133.047 143.778C134.298 145.664 139.329 146.028 144.969 144.848C150.589 143.673 154.814 141.164 154.381 139.248C153.947 137.325 150.346 136.782 143.663 138.18C135.34 139.92 131.893 142.025 133.047 143.778Z" fill="#303135"/>
</g>
</g>
<g id="Group_33">
<g id="Group_34">
<path id="Vector_18" d="M142.054 142.798C146.396 141.89 150.261 141.73 152.014 142.284C150.405 143.256 148.109 144.142 145.459 144.747L144.97 144.85L144.523 144.943C140.638 145.705 137.097 145.721 134.929 145.006C136.706 144.189 139.223 143.39 142.054 142.798Z" fill="#FF4433"/>
</g>
</g>
<g id="Group_35">
<g id="Group_36">
<path id="Vector_19" d="M34.4806 121.594C31.5614 106.556 41.461 91.7161 56.8924 88.0059C64.5863 86.1553 72.4377 87.3269 78.8594 90.6657C78.8859 90.6821 78.9077 90.6776 78.9343 90.694C81.1571 93.3502 83.4605 96.3632 72.7774 116.026C60.4615 138.778 52.2601 141.922 49.3742 141.69C42.4041 137.543 36.0896 130.028 34.4806 121.594Z" fill="#303135"/>
</g>
</g>
<g id="Group_37">
<g id="Group_38">
<path id="Vector_20" d="M69.1711 72.6115C71.7601 70.6196 75.5292 71.0183 77.6002 73.5085C79.6712 75.9986 79.2567 79.6239 76.6677 81.6159C59.7772 94.6425 51.739 113.775 55.8611 132.012C56.5632 135.118 54.4969 138.21 51.2676 138.885C48.0164 139.565 44.824 137.573 44.122 134.467C38.9848 111.738 48.853 88.267 69.1711 72.6115Z" fill="#B06BFF"/>
</g>
</g>
<g id="Group_39">
<g id="Group_40">
<path id="Vector_21" d="M48.5582 118.769C61.5038 116.063 74.2996 123.974 77.1139 136.426C79.9282 148.877 71.7024 161.185 58.7568 163.892C45.8112 166.599 33.0154 158.687 30.2011 146.235C27.3868 133.784 35.6127 121.476 48.5582 118.769Z" fill="#984DFF"/>
</g>
</g>
<g id="Group_41">
<g id="Group_42">
<path id="Vector_22" d="M42.3893 129.51C48.2148 128.292 54.3157 133.369 56.0042 140.84C57.6928 148.311 54.3339 155.365 48.5084 156.584C42.6829 157.802 36.5821 152.725 34.8935 145.254C33.2049 137.783 36.5638 130.728 42.3893 129.51Z" fill="#D98CFF"/>
</g>
</g>
<g id="Group_43">
<g id="Group_44">
<g id="Group_45">
<path id="Vector_23" d="M137.143 58.684C136.788 57.8893 137.498 57.0348 138.382 57.1915L142.998 58.0091C143.369 58.0747 143.681 58.3136 143.829 58.647L144.649 60.4846C145.004 61.2793 144.293 62.1338 143.409 61.977L140.626 61.4837L143.957 68.9514C143.969 68.9762 143.98 69.0021 143.991 69.0279L144.13 69.3395L144.105 69.3507C144.486 70.6984 143.846 72.3889 142.406 73.5168C140.613 74.9212 138.259 74.9224 137.148 73.5213C136.037 72.1202 136.589 69.8467 138.382 68.4424C139.204 67.7979 140.144 67.4493 141.029 67.3949L137.143 58.684Z" fill="#FF9D33"/>
</g>
</g>
<g id="Group_46">
<g id="Group_47">
<path id="Vector_24" d="M179.519 41.8136C179.866 40.2332 181.905 39.6628 183.08 40.8165L189.214 46.8385C189.706 47.3222 189.915 48.009 189.769 48.6718L188.966 52.3245C188.619 53.9049 186.58 54.4753 185.405 53.3216L181.708 49.6904L178.445 64.5362C178.435 64.5864 178.423 64.6372 178.411 64.688L178.275 65.3077L178.225 65.2989C177.3 67.7507 174.434 69.6702 170.973 69.9024C166.666 70.1923 163.07 67.7597 162.94 64.4716C162.81 61.1835 166.195 58.2833 170.502 57.9934C172.478 57.8601 174.303 58.2998 175.714 59.1313L179.519 41.8136Z" fill="#FF9D33"/>
</g>
</g>
</g>
</g>
</g>
<defs>
<filter id="filter0_d_18_30" x="-3" y="12.5" width="242.5" height="235" filterUnits="userSpaceOnUse" color-interpolation-filters="sRGB">
<feFlood flood-opacity="0" result="BackgroundImageFix"/>
<feColorMatrix in="SourceAlpha" type="matrix" values="0 0 0 0 0 0 0 0 0 0 0 0 0 0 0 0 0 0 127 0" result="hardAlpha"/>
<feOffset dx="2" dy="10"/>
<feGaussianBlur stdDeviation="10"/>
<feComposite in2="hardAlpha" operator="out"/>
<feColorMatrix type="matrix" values="0 0 0 0 0 0 0 0 0 0 0 0 0 0 0 0 0 0 0.15 0"/>
<feBlend mode="normal" in2="BackgroundImageFix" result="effect1_dropShadow_18_30"/>
<feBlend mode="normal" in="SourceGraphic" in2="effect1_dropShadow_18_30" result="shape"/>
</filter>
<clipPath id="clip0_18_30">
<rect width="228" height="228" fill="white"/>
</clipPath>
</defs>
</svg>
