<svg width="26" height="26" viewBox="0 0 26 26" fill="none" xmlns="http://www.w3.org/2000/svg">
<g id="uil:instagram">
<path id="Vector" d="M18.785 5.91501C18.5279 5.91501 18.2765 5.99125 18.0628 6.13409C17.849 6.27694 17.6824 6.47997 17.584 6.71752C17.4856 6.95506 17.4598 7.21645 17.51 7.46862C17.5601 7.7208 17.684 7.95244 17.8658 8.13424C18.0476 8.31605 18.2792 8.43987 18.5314 8.49003C18.7836 8.54019 19.045 8.51444 19.2825 8.41605C19.52 8.31765 19.7231 8.15103 19.8659 7.93725C20.0088 7.72346 20.085 7.47212 20.085 7.215C20.085 6.87022 19.948 6.53956 19.7042 6.29577C19.4604 6.05197 19.1298 5.91501 18.785 5.91501ZM23.7683 8.53667C23.7473 7.63783 23.5789 6.74853 23.27 5.90417C22.9945 5.18173 22.5658 4.52756 22.0133 3.98667C21.4769 3.43138 20.8212 3.00536 20.0958 2.74084C19.2537 2.42251 18.3634 2.25032 17.4633 2.23167C16.315 2.16667 15.9467 2.16667 13 2.16667C10.0533 2.16667 9.68501 2.16667 8.53667 2.23167C7.63659 2.25032 6.74629 2.42251 5.90417 2.74084C5.18015 3.00804 4.52502 3.4337 3.98667 3.98667C3.43138 4.52311 3.00536 5.17881 2.74084 5.90417C2.42251 6.74629 2.25032 7.63659 2.23167 8.53667C2.16667 9.68501 2.16667 10.0533 2.16667 13C2.16667 15.9467 2.16667 16.315 2.23167 17.4633C2.25032 18.3634 2.42251 19.2537 2.74084 20.0958C3.00536 20.8212 3.43138 21.4769 3.98667 22.0133C4.52502 22.5663 5.18015 22.992 5.90417 23.2592C6.74629 23.5775 7.63659 23.7497 8.53667 23.7683C9.68501 23.8333 10.0533 23.8333 13 23.8333C15.9467 23.8333 16.315 23.8333 17.4633 23.7683C18.3634 23.7497 19.2537 23.5775 20.0958 23.2592C20.8212 22.9946 21.4769 22.5686 22.0133 22.0133C22.5683 21.4745 22.9974 20.8197 23.27 20.0958C23.5789 19.2515 23.7473 18.3622 23.7683 17.4633C23.7683 16.315 23.8333 15.9467 23.8333 13C23.8333 10.0533 23.8333 9.68501 23.7683 8.53667ZM21.8183 17.3333C21.8105 18.021 21.6859 18.7024 21.45 19.3483C21.277 19.8198 20.9992 20.2458 20.6375 20.5942C20.2861 20.9522 19.861 21.2295 19.3917 21.4067C18.7457 21.6426 18.0643 21.7671 17.3767 21.775C16.2933 21.8292 15.8925 21.84 13.0433 21.84C10.1942 21.84 9.79334 21.84 8.71001 21.775C7.99597 21.7884 7.28498 21.6784 6.60834 21.45C6.1596 21.2638 5.75397 20.9872 5.41667 20.6375C5.0571 20.2895 4.78275 19.8631 4.61501 19.3917C4.35052 18.7364 4.20382 18.0396 4.18167 17.3333C4.18167 16.25 4.11667 15.8492 4.11667 13C4.11667 10.1508 4.11667 9.75001 4.18167 8.66667C4.18653 7.96365 4.31487 7.26695 4.56084 6.60834C4.75156 6.15108 5.04429 5.74347 5.41667 5.41667C5.7458 5.04419 6.15257 4.74836 6.60834 4.55C7.26869 4.31172 7.96467 4.18717 8.66667 4.18167C9.75001 4.18167 10.1508 4.11667 13 4.11667C15.8492 4.11667 16.25 4.11667 17.3333 4.18167C18.021 4.18956 18.7024 4.31411 19.3483 4.55C19.8406 4.73271 20.2825 5.02976 20.6375 5.41667C20.9925 5.74945 21.2699 6.1563 21.45 6.60834C21.6908 7.26802 21.8154 7.96443 21.8183 8.66667C21.8725 9.75001 21.8833 10.1508 21.8833 13C21.8833 15.8492 21.8725 16.25 21.8183 17.3333ZM13 7.44251C11.9013 7.44465 10.8279 7.77241 9.91538 8.38437C9.00288 8.99634 8.29225 9.86505 7.87328 10.8807C7.4543 11.8964 7.34579 13.0135 7.56145 14.0908C7.77711 15.1682 8.30726 16.1574 9.08492 16.9336C9.86258 17.7097 10.8528 18.2379 11.9306 18.4515C13.0084 18.6651 14.1252 18.5544 15.1401 18.1334C16.155 17.7125 17.0223 17.0001 17.6325 16.0865C18.2427 15.1728 18.5683 14.0987 18.5683 13C18.5698 12.2689 18.4266 11.5447 18.1472 10.869C17.8677 10.1934 17.4574 9.57972 16.9399 9.06323C16.4225 8.54674 15.808 8.13766 15.1318 7.85951C14.4556 7.58137 13.7311 7.43965 13 7.44251ZM13 16.6075C12.2865 16.6075 11.589 16.3959 10.9958 15.9995C10.4025 15.6031 9.94015 15.0397 9.66711 14.3805C9.39407 13.7214 9.32263 12.996 9.46182 12.2962C9.60102 11.5964 9.9446 10.9536 10.4491 10.4491C10.9536 9.9446 11.5964 9.60102 12.2962 9.46182C12.996 9.32263 13.7214 9.39407 14.3805 9.66711C15.0397 9.94015 15.6031 10.4025 15.9995 10.9958C16.3959 11.589 16.6075 12.2865 16.6075 13C16.6075 13.4737 16.5142 13.9429 16.3329 14.3805C16.1516 14.8182 15.8859 15.2159 15.5509 15.5509C15.2159 15.8859 14.8182 16.1516 14.3805 16.3329C13.9429 16.5142 13.4737 16.6075 13 16.6075Z" fill="white"/>
</g>
</svg>
