<svg width="27" height="30" viewBox="0 0 27 30" fill="none" xmlns="http://www.w3.org/2000/svg">
<g id="Mp4">
<path id="Vector" fill-rule="evenodd" clip-rule="evenodd" d="M26.25 8.4375V26.25C26.25 27.2446 25.8549 28.1984 25.1516 28.9016C24.4484 29.6049 23.4946 30 22.5 30V28.125C22.9973 28.125 23.4742 27.9275 23.8258 27.5758C24.1775 27.2242 24.375 26.7473 24.375 26.25V8.4375H20.625C19.8791 8.4375 19.1637 8.14118 18.6363 7.61374C18.1088 7.08629 17.8125 6.37092 17.8125 5.625V1.875H7.5C7.00272 1.875 6.52581 2.07254 6.17417 2.42417C5.82254 2.77581 5.625 3.25272 5.625 3.75V20.625H3.75V3.75C3.75 2.75544 4.14509 1.80161 4.84835 1.09835C5.55161 0.395088 6.50544 0 7.5 0L17.8125 0L26.25 8.4375ZM1.32375 29.7169V24.7294H1.395L3.18 28.7794H4.1475L5.92125 24.7294H5.9925V29.7169H7.33313V22.2188H5.83313L3.69562 27.0863H3.64688L1.50937 22.2188H0V29.7169H1.32375ZM11.22 22.2188H8.22V29.7169H9.705V27.2006H11.2106C11.7487 27.2006 12.2044 27.0938 12.5831 26.8762C12.9637 26.6569 13.2525 26.3606 13.4513 25.9875C13.6556 25.596 13.7593 25.1597 13.7531 24.7181C13.7531 24.2494 13.6538 23.8256 13.4569 23.4487C13.2611 23.0741 12.9617 22.7637 12.5944 22.5544C12.1756 22.3188 11.7002 22.2027 11.22 22.2188ZM12.2419 24.7181C12.2486 24.9652 12.1939 25.21 12.0825 25.4306C11.9831 25.6224 11.8282 25.7799 11.6381 25.8825C11.4199 25.9905 11.1784 26.0433 10.935 26.0362H9.6975V23.4H10.935C11.3456 23.4 11.6662 23.5125 11.8969 23.7394C12.1275 23.9681 12.2419 24.2944 12.2419 24.7181ZM15.0638 24.6581C15.5625 23.8444 16.0575 23.0325 16.5469 22.2188H18.6844V27.1313H19.6031V28.3275H18.6844V29.7169H17.295V28.3275H13.6631V27.1125C14.1038 26.2875 14.5706 25.47 15.0638 24.6562V24.6581ZM15.0094 27.0919V27.1294H17.295V23.34H17.2181C16.8412 23.9363 16.4606 24.5513 16.08 25.185C15.705 25.8188 15.3469 26.4544 15.0094 27.0919Z" fill="white"/>
</g>
</svg>
