<svg width="26" height="22" viewBox="0 0 26 22" fill="none" xmlns="http://www.w3.org/2000/svg">
<g id="logos:twitter" clip-path="url(#clip0_81_316)">
<path id="Vector" d="M25.9987 2.58452C25.0252 3.01579 23.9926 3.29887 22.9353 3.42436C24.0366 2.76427 24.8823 1.71899 25.2804 0.473544C24.2335 1.09483 23.088 1.53256 21.8936 1.76783C20.9206 0.731285 19.5345 0.0834808 18.0003 0.0834808C15.0547 0.0834808 12.6665 2.47159 12.6665 5.41702C12.6665 5.83511 12.7137 6.24214 12.8046 6.63261C8.37184 6.41011 4.44175 4.28674 1.81103 1.05981C1.35202 1.84755 1.089 2.76386 1.089 3.7412C1.089 5.59169 2.03069 7.22415 3.46177 8.18068C2.61477 8.15415 1.78641 7.92538 1.04584 7.51347C1.04553 7.53582 1.04553 7.55816 1.04553 7.5806C1.04553 10.1648 2.88404 12.3206 5.32394 12.8106C4.53852 13.0242 3.71467 13.0554 2.91532 12.902C3.59399 15.021 5.56381 16.5629 7.89769 16.6061C6.07228 18.0366 3.77242 18.8893 1.27362 18.8893C0.843036 18.8893 0.418546 18.864 0.00126648 18.8148C2.36165 20.3281 5.16522 21.2111 8.17726 21.2111C17.988 21.2111 23.3527 13.0837 23.3527 6.03558C23.3527 5.80424 23.3476 5.57423 23.3372 5.34553C24.3814 4.59067 25.2827 3.65571 25.9987 2.58452Z" fill="#DBEEFC"/>
</g>
<defs>
<clipPath id="clip0_81_316">
<rect width="26" height="21.2245" fill="white"/>
</clipPath>
</defs>
</svg>
